<svg width="130" height="42" viewBox="0 0 130 42" fill="none" xmlns="http://www.w3.org/2000/svg">
<path d="M0 4C0 1.79086 1.79086 0 4 0H126C128.209 0 130 1.79086 130 4V38C130 40.2091 128.209 42 126 42H4C1.79086 42 0 40.2091 0 38V4Z" fill="url(#paint0_linear_72_4)"/>
<path d="M22.2364 16.7625C21.1482 15.675 19.6548 15 17.9962 15C14.6792 15 12 17.685 12 21C12 24.315 14.6792 27 17.9962 27C20.7955 27 23.1295 25.0875 23.7974 22.5H22.2364C21.621 24.2475 19.955 25.5 17.9962 25.5C15.5122 25.5 13.4934 23.4825 13.4934 21C13.4934 18.5175 15.5122 16.5 17.9962 16.5C19.242 16.5 20.3527 17.0175 21.1632 17.835L18.7467 20.25H24V15L22.2364 16.7625Z" fill="white"/>
<defs>
<linearGradient id="paint0_linear_72_4" x1="65" y1="0" x2="65" y2="42" gradientUnits="userSpaceOnUse">
<stop stop-color="#434854"/>
<stop offset="1" stop-color="#9E9E9E"/>
</linearGradient>
</defs>
</svg>
